<svg xmlns="http://www.w3.org/2000/svg" width="800" height="1000" viewBox="0 0 800 1000"><defs><filter id="s"><feDropShadow dx="0" dy="10" stdDeviation="12" flood-opacity=".14"/></filter><style>.t{font:700 64px Arial,sans-serif;fill:#282330}.a{fill:#F72F82}.tag{font:700 17px Arial,sans-serif;letter-spacing:1px;fill:#F72F82}.sub{font:italic 25px Arial,sans-serif;fill:#282330}</style></defs><rect width="800" height="1000" fill="#FFF0F7"/><ellipse cx="175" cy="390" rx="190" ry="160" fill="#fff"/><ellipse cx="650" cy="260" rx="150" ry="115" fill="#FF4F9A"/><ellipse cx="635" cy="840" rx="180" ry="125" fill="#FFE4B2"/><image href="assets/musa-logo.jpg" x="60" y="55" width="170" height="170" preserveAspectRatio="xMidYMid meet"/><text x="65" y="270" class="tag">AUTOCUIDADO · HÁBITOS · BELLEZA</text><text x="90" y="520" class="t">GLOW</text><text x="90" y="600" class="t a">UP</text><text x="90" y="680" class="sub">Un ratito para vos.</text><g filter="url(#s)"><path d="M70 755 C120 725 190 735 240 750 C310 770 380 720 455 750 C520 776 600 735 730 760 L720 870 C610 900 510 870 420 895 C330 920 220 875 80 900 Z" fill="#fff"/></g><text x="100" y="805" class="tag">MUSA DIGITAL · 10 + 1 PÁGINAS</text><text x="100" y="850" class="sub" style="font-size:19px;fill:#786F7D">MADE WITH LOVE BY MUSA ♡</text><g fill="#D1A85A"><path d="M685 115 l7 20 20 7-20 7-7 20-7-20-20-7 20-7z"/><path d="M95 705 l5 15 15 5-15 5-5 15-5-15-15-5 15-5z"/></g></svg>